<svg xmlns="http://www.w3.org/2000/svg" xmlns:xlink="http://www.w3.org/1999/xlink" width="50" 
   height="50" viewBox="0 0 48.23 48.23"><defs><style>.cls-1{fill:url(#radial-gradient);}.cls-2{fill:#f2f2f2;}</style><radialGradient id="radial-gradient" cx="24.11" cy="24.11" r="24.11" gradientUnits="userSpaceOnUse"><stop offset="0" stop-color="#3d7199"/><stop offset="1" stop-color="#293245"/></radialGradient></defs><title>Asset 2</title><g id="Layer_2" data-name="Layer 2"><g id="Buttons"><circle class="cls-1" cx="24.11" cy="24.11" r="24.11"/><path class="cls-2" d="M34.67,29.66v.17c-.11.22-.23.44-.32.66a14.5,14.5,0,0,1-3.77,5.6,3.28,3.28,0,0,1-3.76.51A6.32,6.32,0,0,0,22.56,36a8.73,8.73,0,0,0-1.59.53c-2.2,1.09-3.66.21-5-1.46a17.59,17.59,0,0,1-3.88-8.37c-.51-3.08-.39-6,1.71-8.56a6.21,6.21,0,0,1,7.46-1.78,4.19,4.19,0,0,0,3.78.23A7.37,7.37,0,0,1,30.72,16a5.87,5.87,0,0,1,3.13,2.33c-.29.26-.55.47-.79.7a6.19,6.19,0,0,0-1.81,6.82A6.92,6.92,0,0,0,34.67,29.66ZM23.45,15c2.71.52,5.77-3.36,5.21-6.06C25.64,9,22.81,12.49,23.45,15Z"/></g></g></svg>