<svg id="Icons" xmlns="http://www.w3.org/2000/svg" width="21.298" height="21.298" viewBox="0 0 21.298 21.298">
  <g id="Rounded" transform="translate(0 0)">
    <g id="Content">
      <g id="_-Round-_-Content-_-save_alt" data-name="-Round-/-Content-/-save_alt">
        <g id="Group_235" data-name="Group 235">
          <path id="Path" d="M0,0H21.3V21.3H0Z" fill="none" fill-rule="evenodd"/>
          <path id="_Icon-Color" data-name="🔹Icon-Color" d="M17.2,11.874v4.437a.89.89,0,0,1-.887.887H5.662a.89.89,0,0,1-.887-.887V11.874a.887.887,0,0,0-1.775,0V17.2a1.78,1.78,0,0,0,1.775,1.775H17.2A1.78,1.78,0,0,0,18.973,17.2V11.874a.887.887,0,0,0-1.775,0Zm-5.324-.293,1.668-1.668a.885.885,0,1,1,1.251,1.251L11.608,14.35a.884.884,0,0,1-1.251,0L7.171,11.164A.885.885,0,1,1,8.422,9.913L10.1,11.581V3.887a.887.887,0,1,1,1.775,0Z" transform="translate(-0.338 -0.338)" fill="#fff" fill-rule="evenodd"/>
        </g>
      </g>
    </g>
  </g>
</svg>
