<svg xmlns="http://www.w3.org/2000/svg" xmlns:xlink="http://www.w3.org/1999/xlink" width="40" height="40" viewBox="0 0 38.58 38.58"><defs><style>.cls-1{fill:url(#radial-gradient);}.cls-2{fill:#f2f2f2;}</style><radialGradient id="radial-gradient" cx="19.29" cy="19.29" r="19.29" gradientUnits="userSpaceOnUse"><stop offset="0" stop-color="#3d7199"/><stop offset="1" stop-color="#293245"/></radialGradient></defs><title>Asset 3</title><g id="Layer_2" data-name="Layer 2"><g id="Buttons"><circle class="cls-1" cx="19.29" cy="19.29" r="19.29"/><path class="cls-2" d="M28,25.1l-5.2-5.2a.45.45,0,0,1,.09-.71l5.2-3.07a.45.45,0,0,1,.68.38v8.29A.45.45,0,0,1,28,25.1Zm-8.48-5.57,9-5.33a.46.46,0,0,0,.22-.39V12.16a.45.45,0,0,0-.45-.45H10.26a.45.45,0,0,0-.45.45v1.65a.46.46,0,0,0,.22.39l9,5.33A.43.43,0,0,0,19.52,19.53Zm-2.31.95-5.63,5.63a.45.45,0,0,0,.32.76H26.68a.45.45,0,0,0,.32-.76l-5.63-5.63a.45.45,0,0,0-.54-.07l-1.31.78a.47.47,0,0,1-.46,0l-1.31-.78A.45.45,0,0,0,17.21,20.48Zm-1.52-1.29-5.2-3.07a.45.45,0,0,0-.68.38v8.29a.45.45,0,0,0,.77.31l5.2-5.2A.45.45,0,0,0,15.69,19.19Zm13.08,7.68Z"/></g></g></svg>