<svg xmlns="http://www.w3.org/2000/svg" xmlns:xlink="http://www.w3.org/1999/xlink" width="50" 
   height="50" viewBox="0 0 48.23 48.23"><defs><style>.cls-1{fill:url(#radial-gradient);}.cls-2{fill:#23e989;}.cls-3{fill:#ea4a3f;}.cls-4{fill:#67ccf7;}.cls-5{fill:#f7e40b;}</style><radialGradient id="radial-gradient" cx="24.11" cy="24.11" r="24.11" gradientUnits="userSpaceOnUse"><stop offset="0" stop-color="#3d7199"/><stop offset="1" stop-color="#293245"/></radialGradient></defs><title>Asset 1</title><g id="Layer_2" data-name="Layer 2"><g id="Buttons"><circle class="cls-1" cx="24.11" cy="24.11" r="24.11"/><path class="cls-2" d="M32.37,20.35l-3.76,3.73L16,11.63a1,1,0,0,1,.72.09Z"/><path class="cls-3" d="M32.42,27.85,16.74,36.5a.89.89,0,0,1-.72.09L28.61,24.08Z"/><path class="cls-4" d="M28.61,24.08,16,36.59a1,1,0,0,1-.71-.93V12.57a1,1,0,0,1,.71-.94Z"/><path class="cls-5" d="M37.65,25l-5.23,2.89-3.81-3.77,3.76-3.73,5.28,2.92A1,1,0,0,1,37.65,25Z"/></g></g></svg>