<svg id="Rounded" xmlns="http://www.w3.org/2000/svg" width="21.298" height="21.298" viewBox="0 0 21.298 21.298">
  <g id="Content">
    <g id="_-Round-_-Content-_-save_alt" data-name="-Round-/-Content-/-save_alt">
      <g id="Group_235" data-name="Group 235">
        <path id="Path" d="M0,21.3H21.3V0H0Z" fill="none" fill-rule="evenodd"/>
        <path id="_Icon-Color" data-name="🔹Icon-Color" d="M17.2,10.1V5.662a.89.89,0,0,0-.887-.887H5.662a.89.89,0,0,0-.887.887V10.1A.887.887,0,0,1,3,10.1V4.775A1.78,1.78,0,0,1,4.775,3H17.2a1.78,1.78,0,0,1,1.775,1.775V10.1a.887.887,0,0,1-1.775,0Zm-5.324.293,1.668,1.668a.885.885,0,0,0,1.251-1.251L11.608,7.623a.884.884,0,0,0-1.251,0L7.171,10.809A.885.885,0,0,0,8.422,12.06L10.1,10.392v7.694a.887.887,0,1,0,1.775,0Z" transform="translate(-0.338 -0.338)" fill="#fff" fill-rule="evenodd"/>
      </g>
    </g>
  </g>
</svg>
