<svg id="Layer_2" data-name="Layer 2" xmlns="http://www.w3.org/2000/svg" width="250.36" height="54.46" viewBox="0 0 250.36 54.46">
  <g id="Logo">
    <path id="Path_1407" data-name="Path 1407" d="M0,37.46v5l21,12L43,42.1V32.48L21.2,44.69,12,39.46,43,22.14V18.46l-5-3Z" fill="#006eda"/>
    <path id="Path_1408" data-name="Path 1408" d="M0,17.46V27.82L30,10.46l-9-5Z" fill="#22d9f2"/>
    <circle id="Ellipse_22" data-name="Ellipse 22" cx="4.38" cy="4.38" r="4.38" transform="translate(27.39 0)" fill="#22d9f2"/>
    <path id="Path_1409" data-name="Path 1409" d="M78.58,41.22a17.22,17.22,0,0,1-6.67,1.13c-9,0-13.67-5.66-13.67-13.09,0-8.87,6.36-13.79,14.26-13.79a16.22,16.22,0,0,1,6.42,1.12l-1.24,4.69a12.28,12.28,0,0,0-5-1c-4.65,0-8.29,2.83-8.29,8.64,0,5.19,3.1,8.48,8.33,8.48a14.09,14.09,0,0,0,5-.85Z" fill="#fff"/>
    <path id="Path_1410" data-name="Path 1410" d="M82.49,16.24a47.19,47.19,0,0,1,7.86-.58c3.87,0,6.58.58,8.44,2.09a6.54,6.54,0,0,1,2.44,5.46,6.9,6.9,0,0,1-4.61,6.39v.12c1.82.74,2.83,2.44,3.49,4.84.81,3,1.59,6.39,2.09,7.4h-6a34.511,34.511,0,0,1-1.78-6.08c-.74-3.29-1.86-4.15-4.3-4.18H88.34V42H82.49Zm5.85,11.2h2.32c2.94,0,4.68-1.48,4.68-3.76s-1.62-3.6-4.33-3.6a12.1,12.1,0,0,0-2.67.19Z" fill="#fff"/>
    <path id="Path_1411" data-name="Path 1411" d="M110.76,42V31.27l-8.25-15.41h6.78l2.63,6.27c.81,1.9,1.39,3.29,2,5H114c.58-1.63,1.2-3.14,2-5l2.63-6.27h6.62l-8.6,15.22V42Z" fill="#fff"/>
    <path id="Path_1412" data-name="Path 1412" d="M127.37,16.2a49.54,49.54,0,0,1,8-.54c3.64,0,6.24.7,8,2.13a7.41,7.41,0,0,1,2.79,6,8.09,8.09,0,0,1-2.4,6.19c-2,1.86-5,2.75-8.49,2.75a10.63,10.63,0,0,1-2-.15V42h-5.85Zm5.85,11.86a9.28,9.28,0,0,0,2,.15c3.13,0,5.07-1.59,5.07-4.22,0-2.4-1.67-3.83-4.65-3.83a10.39,10.39,0,0,0-2.4.19Z" fill="#fff"/>
    <path id="Path_1413" data-name="Path 1413" d="M155,20.81h-7V15.86h20v4.95h-7.13V42H155Z" fill="#fff"/>
    <path id="Path_1414" data-name="Path 1414" d="M181.05,42.38c-7.71,0-12.28-5.84-12.28-13.28,0-7.82,5-13.67,12.71-13.67,8,0,12.39,6,12.39,13.21,0,8.59-5.15,13.74-12.78,13.74Zm.31-4.68c4,0,6.27-3.76,6.27-8.87,0-4.69-2.2-8.71-6.27-8.71S175,24.07,175,29s2.36,8.75,6.31,8.75Z" fill="#fff"/>
    <path id="Path_1415" data-name="Path 1415" d="M206.34,15.86l-5,26.1h-5.57l4.95-26.1Z" fill="#22d9f2"/>
    <path id="Path_1416" data-name="Path 1416" d="M223.5,30.88h-9.3L213,37.2h10.42l-.89,4.8h-16l5-26.1h15.45L226,20.62h-9.83l-1.09,5.58h9.3Z" fill="#22d9f2"/>
    <path id="Path_1417" data-name="Path 1417" d="M239.92,42l-1.78-5.27c-.51-1.59-.93-2.83-1.4-4.45h-.08c-.85,1.47-1.54,2.79-2.67,4.65L230.93,42h-6.7L234,28.64l-4.57-12.78h5.89l1.59,5c.46,1.63.81,2.79,1.2,4.34h.11c1-1.78,1.63-3,2.48-4.42l3-4.91h6.66l-9.52,12.82,5,13.28Z" fill="#22d9f2"/>
  </g>
</svg>
